<?xml version="1.0" standalone="no"?>
<!DOCTYPE svg PUBLIC "-//W3C//DTD SVG 20010904//EN"
 "http://www.w3.org/TR/2001/REC-SVG-20010904/DTD/svg10.dtd">
<svg version="1.0" xmlns="http://www.w3.org/2000/svg"
 width="225.000000pt" height="225.000000pt" viewBox="0 0 225.000000 225.000000"
 preserveAspectRatio="xMidYMid meet">
<metadata>
Created by potrace 1.15, written by Peter Selinger 2001-2017
</metadata>
<g transform="translate(0.000000,225.000000) scale(0.100000,-0.100000)"
fill="#000000" stroke="none">
<path d="M986 2194 c-167 -30 -336 -97 -336 -132 0 -42 24 -45 97 -14 289 126
572 123 856 -11 72 -33 92 -39 107 -30 16 11 21 4 49 -58 17 -38 31 -71 31
-74 0 -3 -33 -5 -74 -5 -74 0 -75 0 -78 28 -3 23 -15 33 -78 64 -136 67 -212
83 -400 82 -150 0 -173 -3 -255 -28 -203 -62 -399 -202 -503 -358 -24 -36 -25
-37 -52 -23 -16 8 -32 20 -35 26 -15 23 133 197 226 265 50 36 63 69 34 80
-33 13 -71 -11 -169 -109 -105 -105 -190 -223 -184 -254 3 -19 142 -103 170
-103 10 0 32 23 52 53 115 181 329 326 546 372 158 33 371 12 512 -52 60 -27
65 -32 47 -50 -6 -6 -9 -21 -7 -34 3 -23 6 -24 108 -27 58 -1 132 1 165 5 50
7 61 12 63 28 4 28 -121 290 -142 298 -16 7 -56 -24 -56 -42 0 -6 -28 3 -62
18 -203 91 -429 122 -632 85z"/>
<path d="M1983 1638 c-40 -23 -74 -47 -77 -54 -3 -7 12 -51 34 -96 63 -135 75
-192 75 -363 0 -173 -12 -226 -80 -371 -56 -115 -138 -220 -233 -296 l-75 -59
-22 26 c-35 45 -52 31 -126 -108 -69 -128 -80 -164 -56 -172 6 -3 80 -11 162
-19 129 -12 152 -12 165 0 12 12 12 19 2 47 -11 29 -11 33 10 47 77 51 182
147 241 220 68 85 78 109 53 129 -20 17 -41 5 -71 -41 -43 -64 -163 -180 -253
-242 -67 -47 -82 -62 -77 -78 6 -18 3 -19 -72 -12 -43 4 -79 8 -81 9 -2 1 14
33 34 70 26 47 40 63 47 56 22 -22 55 -9 142 57 145 109 263 275 320 447 67
200 57 452 -24 645 -16 40 -28 77 -25 82 3 4 19 15 35 24 l30 15 31 -68 c58
-129 81 -241 81 -403 1 -163 -17 -259 -74 -397 -34 -80 -32 -108 7 -108 42 0
116 214 135 394 21 191 -15 396 -102 577 -47 101 -53 102 -156 42z"/>
<path d="M925 1523 c-45 -6 -138 -34 -152 -45 -8 -7 -13 -37 -13 -83 l0 -73
40 -19 c39 -18 39 -19 40 -73 0 -53 -1 -56 -38 -75 -37 -20 -37 -20 -40 -90
-3 -60 0 -72 17 -86 16 -13 21 -31 23 -85 3 -64 5 -69 33 -85 124 -72 586 -72
710 0 28 16 30 21 33 89 3 63 0 73 -18 84 -16 11 -20 23 -20 71 0 54 2 58 27
68 51 19 63 38 63 96 0 68 -11 88 -54 103 -35 11 -35 12 -38 77 -4 83 -21 98
-134 118 -73 13 -399 19 -479 8z m508 -36 c100 -25 100 -52 -1 -80 -176 -49
-512 -39 -624 19 -53 27 -28 45 97 70 94 18 446 12 528 -9z m136 -188 c110
-39 -93 -99 -334 -99 -126 0 -271 20 -331 45 -46 19 -44 35 4 24 20 -5 98 -12
172 -15 151 -7 292 6 373 35 64 23 76 24 116 10z m-704 -159 c12 -19 136 -49
248 -59 111 -11 315 -2 364 15 13 5 15 4 8 -4 -40 -44 -374 -67 -544 -38 -95
17 -161 40 -161 58 0 5 15 15 33 23 39 17 44 18 52 5z m676 -170 c28 -15 24
-25 -18 -44 -103 -45 -376 -61 -548 -31 -79 14 -153 40 -143 51 3 2 38 -4 79
-12 92 -20 343 -23 448 -6 41 7 93 21 115 32 23 10 42 19 44 19 2 1 12 -4 23
-9z"/>
<path d="M95 1269 c-48 -68 -89 -129 -92 -136 -8 -21 17 -43 47 -43 27 0 28
-2 34 -72 37 -373 272 -707 611 -869 123 -59 217 -85 358 -101 143 -16 141
-17 145 103 3 110 -3 119 -83 119 -241 0 -520 160 -668 383 -76 114 -137 290
-137 394 0 40 1 42 33 45 53 5 46 33 -40 169 -55 87 -85 125 -100 127 -17 3
-38 -21 -108 -119z m147 -42 c34 -56 36 -62 19 -69 -26 -9 -29 -23 -20 -119
37 -412 330 -737 742 -824 38 -8 86 -15 108 -15 l39 0 0 -46 0 -46 -62 7
c-498 54 -882 446 -915 933 -5 75 -10 96 -25 106 -18 13 -17 16 24 75 23 33
44 61 47 61 3 0 23 -28 43 -63z"/>
</g>
</svg>
